<?xml version="1.0" standalone="no"?>
<!DOCTYPE svg PUBLIC "-//W3C//DTD SVG 20010904//EN"
 "http://www.w3.org/TR/2001/REC-SVG-20010904/DTD/svg10.dtd">
<svg version="1.0" xmlns="http://www.w3.org/2000/svg"
 width="530.000000pt" height="530.000000pt" viewBox="0 0 530.000000 530.000000"
 preserveAspectRatio="xMidYMid meet">
<metadata>
Created by potrace 1.14, written by Peter Selinger 2001-2017
</metadata>
<g transform="translate(0.000000,530.000000) scale(0.100000,-0.100000)"
fill="#000000" stroke="none">
<path d="M1567 4544 c-392 -71 -700 -361 -800 -751 l-22 -88 0 -1055 0 -1055
23 -90 c30 -120 116 -294 192 -388 140 -174 327 -293 547 -350 l88 -22 1055 0
1055 0 90 23 c120 30 294 116 388 192 174 140 293 327 350 547 l22 88 0 1055
0 1055 -23 90 c-30 120 -116 294 -192 388 -138 172 -323 291 -542 349 -83 22
-85 22 -1118 24 -857 2 -1048 0 -1113 -12z m1226 -489 c145 -26 306 -122 395
-237 198 -257 184 -615 -34 -857 -64 -71 -179 -145 -277 -178 -71 -23 -98 -27
-207 -27 -110 0 -134 3 -203 27 -172 60 -306 177 -387 338 -46 89 -64 172 -64
289 0 256 135 474 365 590 124 63 265 82 412 55z m118 -1525 c478 -49 877
-245 992 -487 28 -60 32 -78 32 -153 0 -75 -4 -93 -32 -153 -104 -218 -416
-392 -843 -469 -148 -26 -508 -36 -673 -18 -389 42 -705 166 -888 350 -76 77
-116 150 -132 243 -9 55 -8 75 8 132 51 191 254 355 567 460 112 37 306 79
433 93 114 13 414 14 536 2z"/>
</g>
</svg>
