<svg width="12" height="9" viewBox="0 0 12 9" fill="none" xmlns="http://www.w3.org/2000/svg">
<path d="M11.1621 4.7251C11.1621 4.6001 11.1113 4.49072 11.0098 4.39697L7.33008 0.711426C7.27148 0.656738 7.21289 0.617676 7.1543 0.594238C7.09961 0.570801 7.04297 0.559082 6.98438 0.559082C6.85938 0.559082 6.75391 0.600098 6.66797 0.682129C6.58594 0.760254 6.54492 0.861816 6.54492 0.986816C6.54492 1.04541 6.55469 1.104 6.57422 1.1626C6.59766 1.21729 6.62891 1.26416 6.66797 1.30322L8.07422 2.73291L10.1484 4.63721L10.2539 4.37939L8.53125 4.28564H1.31836C1.18555 4.28564 1.07812 4.32666 0.996094 4.40869C0.914062 4.49072 0.873047 4.59619 0.873047 4.7251C0.873047 4.85791 0.914062 4.96533 0.996094 5.04736C1.07812 5.12939 1.18555 5.17041 1.31836 5.17041H8.53125L10.2539 5.0708L10.1484 4.82471L8.07422 6.72314L6.66797 8.15283C6.62891 8.19189 6.59766 8.24072 6.57422 8.29932C6.55469 8.354 6.54492 8.41064 6.54492 8.46924C6.54492 8.59424 6.58594 8.6958 6.66797 8.77393C6.75391 8.85596 6.85938 8.89697 6.98438 8.89697C7.10156 8.89697 7.20898 8.85205 7.30664 8.76221L11.0098 5.05908C11.1113 4.96533 11.1621 4.854 11.1621 4.7251Z" fill="white"/>
</svg>
