<svg width="27" height="22" viewBox="0 0 27 22" fill="none" xmlns="http://www.w3.org/2000/svg">
<path d="M0.530273 10.9951C0.530273 11.3174 0.657227 11.5957 0.911133 11.8301L10.1689 21.0879C10.4033 21.3125 10.6719 21.4248 10.9746 21.4248C11.2773 21.4248 11.5361 21.3223 11.751 21.1172C11.9658 20.9219 12.0732 20.668 12.0732 20.3555C12.0732 20.209 12.0439 20.0674 11.9854 19.9307C11.9365 19.7842 11.8633 19.6621 11.7656 19.5645L8.25 15.9902L3.06445 11.2441L2.78613 11.8594L7.10742 12.1084H25.1543C25.4668 12.1084 25.7256 12.0059 25.9307 11.8008C26.1455 11.5957 26.2529 11.3271 26.2529 10.9951C26.2529 10.6729 26.1455 10.4092 25.9307 10.2041C25.7256 9.99902 25.4668 9.89648 25.1543 9.89648H7.10742L2.78613 10.1309L3.06445 10.7754L8.25 6.01465L11.7656 2.44043C11.8633 2.34277 11.9365 2.22559 11.9854 2.08887C12.0439 1.94238 12.0732 1.7959 12.0732 1.64941C12.0732 1.33691 11.9658 1.08301 11.751 0.887695C11.5361 0.682617 11.2773 0.580078 10.9746 0.580078C10.8184 0.580078 10.6719 0.609375 10.5352 0.667969C10.3984 0.726562 10.2568 0.824219 10.1104 0.960938L0.911133 10.1748C0.657227 10.4092 0.530273 10.6826 0.530273 10.9951Z" fill="black"/>
</svg>
