<svg width="669" height="360" viewBox="0 0 669 360" fill="none" xmlns="http://www.w3.org/2000/svg">
<path d="M26.1723 358.358C26.1723 358.358 -32.8566 268.58 31.7452 171.382C89.0641 85.1415 179.502 153.716 230.747 65.9628C300.629 -53.7076 649.382 -6.97262 605.213 177.145C583.84 266.244 702.22 269.483 658.185 358.548L26.1723 358.358" fill="#EBF3FA"/>
<path d="M466.759 178.956C466.759 178.956 456.097 164.822 467.422 156.973C467.422 156.973 475.601 152.693 482.004 153.483C482.004 153.483 471.945 168.185 474.795 169.887C477.648 171.592 484.824 152.695 484.824 152.695C484.824 152.695 502.871 152.076 508.468 155.21C508.468 155.21 492.35 166.803 495.533 167.75C498.716 168.7 516.049 157.416 516.049 157.416C516.049 157.416 532.567 161.301 531.04 171.43C529.515 181.559 523.565 184.344 521.054 183.915C518.541 183.487 504.105 176.918 503.654 178.969C503.202 181.021 511.681 188.347 517.897 189.052C517.897 189.052 505.315 201.299 497.727 197.065C490.137 192.828 489.841 186.848 485.104 184.317C480.366 181.785 476.204 181.531 478.075 183.929C479.946 186.326 488.633 189.084 491.114 194.191C493.595 199.298 495.889 202.782 487.871 201.058C479.854 199.335 467.069 192.59 466.914 185.774C466.759 178.956 466.759 178.956 466.759 178.956" fill="#82B378"/>
<path d="M522.819 171.192C522.819 171.192 477.583 166.614 466.759 178.956C466.759 178.956 464.131 185.451 456.94 191.066L455.697 193.894C455.697 193.894 464.07 186.1 466.914 185.774C466.914 185.774 463.521 169.435 522.819 171.192Z" fill="#82B378"/>
<path d="M456.94 191.066C456.94 191.066 446.758 197.656 445.277 210.475L447.035 210.743C447.035 210.743 450.973 197.637 456.917 192.789C462.86 187.938 456.94 191.066 456.94 191.066" fill="#82B378"/>
<path d="M414.449 145.165C414.449 145.165 390.808 131.925 401.839 113.956C401.839 113.956 410.665 102.925 420.122 100.088C420.122 100.088 415.079 126.88 420.122 127.51C425.166 128.141 423.589 97.2515 423.589 97.2515C423.589 97.2515 448.491 85.2727 458.264 86.2175C458.264 86.2175 442.818 112.381 447.861 111.75C452.905 111.12 470.243 84.6422 470.243 84.6422C470.243 84.6422 495.776 79.9139 499.873 95.0434C503.971 110.175 497.351 117.74 493.568 118.685C489.786 119.632 465.515 119.315 466.143 122.468C466.776 125.621 483.166 130.663 492.306 127.827C492.306 127.827 482.219 152.729 468.982 151.468C455.742 150.207 451.644 142.012 443.449 141.381C435.253 140.75 429.264 142.956 433.362 145.165C437.459 147.37 451.33 145.888 457.948 151.514C464.568 157.141 469.926 160.61 457.633 163.13C445.341 165.653 423.275 164.078 418.861 154.621C414.449 145.165 414.449 145.165 414.449 145.165" fill="#A8D29F"/>
<path d="M488.209 99.7725C488.209 99.7725 422.013 121.208 414.448 145.165C414.448 145.165 414.763 155.883 408.143 168.176V172.904C408.143 172.904 415.079 156.828 418.86 154.622C418.86 154.622 404.045 133.817 488.209 99.7725" fill="#82B378"/>
<path d="M408.142 168.175C408.142 168.175 397.935 183.676 403.754 202.548L406.38 201.841C406.38 201.841 403.832 181.057 409.173 170.603C414.513 160.151 408.142 168.175 408.142 168.175" fill="#82B378"/>
<path d="M289.777 151.949C289.777 151.949 317.29 140.305 307.376 119.279C307.376 119.279 299.042 106.12 289.022 101.865C289.022 101.865 291.302 131.838 285.698 131.918C280.094 131.997 285.566 98.3356 285.566 98.3356C285.566 98.3356 259.728 82.1898 248.904 82.042C248.904 82.042 262.66 112.585 257.211 111.285C251.759 109.982 235.969 78.8636 235.969 78.8636C235.969 78.8636 208.563 70.5875 202.239 86.6732C195.914 102.757 202.25 111.85 206.281 113.345C210.312 114.839 236.949 117.436 235.877 120.813C234.803 124.19 216.229 127.731 206.556 123.515C206.556 123.515 214.592 152.025 229.252 152.25C243.913 152.471 249.396 143.987 258.456 144.29C267.513 144.592 273.809 147.736 269.051 149.658C264.293 151.58 249.274 148.272 241.337 153.638C233.401 159.001 227.109 162.152 240.275 166.407C253.441 170.659 277.812 171.606 283.795 161.778C289.777 151.949 289.777 151.949 289.777 151.949Z" fill="#A8D29F"/>
<path d="M214.447 93.2668C214.447 93.2668 284.392 124.778 289.778 151.948C289.778 151.948 288.133 163.655 293.899 177.929L293.324 183.11C293.324 183.11 287.674 164.652 283.796 161.777C283.796 161.777 302.551 140.773 214.447 93.2668" fill="#82B378"/>
<path d="M293.899 177.93C293.899 177.93 303.205 196.154 294.541 216.13L291.748 215.037C291.748 215.037 297.061 192.57 292.476 180.466C287.888 168.365 293.899 177.93 293.899 177.93Z" fill="#82B378"/>
<path d="M233.347 219.519C228.485 212.506 227.944 205.974 227.944 205.974C227.944 205.974 241.397 196.314 233.465 186.158C233.465 186.158 227.351 180.06 221.412 178.986C221.412 178.986 226.309 194.912 223.29 195.642C220.269 196.369 219.111 177.498 219.111 177.498C219.111 177.498 203.166 171.927 197.297 173.172C197.297 173.172 208.468 188.006 205.363 187.966C202.256 187.929 189.914 173.033 189.914 173.033C189.914 173.033 174.082 171.908 172.629 181.379C171.175 190.849 175.714 194.99 178.076 195.307C180.438 195.623 195.158 193.771 194.992 195.727C194.823 197.686 185.214 201.869 179.468 200.772C179.468 200.772 187.298 215.209 195.253 213.536C203.208 211.864 205.137 206.604 210.071 205.662C215.004 204.717 218.795 205.648 216.455 207.27C214.117 208.889 205.592 208.937 201.956 212.809C198.323 216.68 195.304 219.151 202.945 219.842C210.583 220.533 223.877 218.066 225.909 212.021C225.999 211.755 226.082 211.506 226.163 211.263C226.055 211.758 225.909 212.021 225.909 212.021C227.378 212.668 229.875 216.266 231.64 219.045C231.901 219.523 232.303 220.179 232.887 221.064H232.89C233.132 221.468 233.326 221.798 233.46 222.029C236.835 228.317 236.722 239.848 236.722 239.848L238.366 240.095C240.609 228.236 233.347 219.519 233.347 219.519" fill="#82B378"/>
<path d="M143.433 58.0654C143.3 57.3401 141.593 49.5513 129.544 50.8795C129.544 50.8795 135.541 50.7271 136.936 53.1709C136.936 53.1709 132.457 50.5515 129.337 52.0552C126.218 53.5589 125.129 59.5668 125.383 61.4516C125.638 63.3388 128.335 69.148 130.485 69.3628C131.299 69.446 132.197 69.2612 132.998 69.0025C132.571 69.9426 132.168 70.9728 131.805 72.1092C128.446 82.6236 134.773 91.505 138.669 89.858C141.168 88.8001 142.546 93.1265 142.546 93.1265L164.816 69.0348C164.816 69.0348 152.763 51.2006 143.433 58.0654Z" fill="#2C3A64"/>
<path d="M172.444 348.233L167.028 350.249C167.028 350.249 143.502 317.623 140.606 288.914C140.088 283.788 140.261 278.824 141.38 274.237C141.38 274.237 141.15 272.925 140.747 270.603C140.561 269.52 140.332 268.215 140.071 266.721C139.306 262.339 138.253 256.343 137.05 249.515C134.282 233.803 130.696 213.719 127.91 198.952L129.37 198.483L145.16 193.39L148.424 183.026L160.182 179.931C160.182 179.931 162.809 185.068 165.157 209.34C165.59 212.525 165.983 216.036 166.28 219.842C167.195 231.463 167.262 245.879 165.161 262.36C164.622 266.58 163.941 270.934 163.096 275.41C162.477 278.69 162.384 283.162 162.645 288.295C163.83 311.762 172.444 348.233 172.444 348.233" fill="#2B478B"/>
<path d="M166.28 219.842L140.747 270.603C140.561 269.519 140.332 268.214 140.071 266.72C139.306 262.338 138.253 256.342 137.05 249.514C134.282 233.802 130.696 213.718 127.91 198.951L129.37 198.482L145.16 193.389L148.424 183.025L160.182 179.93C160.182 179.93 162.809 185.067 165.157 209.339C165.59 212.524 165.983 216.035 166.28 219.842" fill="#233862"/>
<path d="M155.048 186.444L154.457 181.373C144.555 184.004 118.096 174.024 118.096 174.024C118.096 174.024 108.503 182.457 109.763 202.67C110.378 212.535 111.5 254.461 112.673 266.865C113.097 271.362 113.469 274.562 113.62 275.841L113.623 275.853C113.67 276.243 113.534 276.61 113.335 276.952C111.609 279.881 110.179 282.932 109.006 286.055C97.4948 316.732 110.779 354.51 110.779 354.51L114.227 353.119C114.227 353.119 121.787 311.078 127.929 292.504C128.972 289.354 129.972 286.878 130.888 285.399C133.558 281.089 136.037 274.047 138.287 265.669C142.538 249.83 145.961 229.229 148.238 213.325C148.553 213.339 155.048 186.444 155.048 186.444" fill="#2B478B"/>
<path d="M171.015 145.814C171.208 146.015 171.397 146.211 171.625 146.396C180.088 154.284 191.487 161.257 197.586 162.793C201.596 163.819 210.44 162.445 217.785 160.934C222.678 159.971 226.939 158.901 228.697 158.486C229.256 158.354 229.57 158.255 229.57 158.255L228.803 153.302C228.803 153.302 224.401 152.954 218.931 152.337C211.313 151.441 201.656 150.066 199.182 148.604C193.445 145.195 183.376 130.895 175.299 121.905C174.875 121.415 174.456 120.944 174.04 120.482C173.736 120.142 173.432 119.812 173.13 119.486C173.068 119.424 172.991 119.315 172.891 119.262C172.52 118.904 172.204 118.572 171.899 118.281C171.887 118.246 171.835 118.218 171.783 118.188C170.347 116.747 167.83 114.996 167.83 114.996C166.419 114.192 165.256 114.037 164.438 114.723C164.438 114.723 163.382 115.754 162.347 117.703C162.127 118.11 161.91 118.56 161.704 119.047C161.533 119.315 161.448 119.599 161.365 119.886C160.68 121.683 160.181 123.944 160.27 126.577C160.333 128.573 160.715 130.774 161.6 133.202C163.011 137.184 166.576 141.615 171.015 145.814" fill="#FFB27D"/>
<path d="M163.645 124.926C160.775 126.8 157.201 128.31 152.742 129.209C136.028 132.576 130.06 118.362 127.941 108.66C130.242 107.429 132.381 107.203 133.616 107.09C134.82 106.983 136.085 106.923 137.132 106.903C139.037 105.526 141.98 99.7582 142.85 90.7013L143.626 90.9323L156.612 94.8845C156.612 94.8845 155.896 99.026 155.491 102.95C155.177 106.02 155.058 108.961 155.621 109.697C156.636 109.947 157.245 110.109 157.245 110.109L157.251 110.12C157.419 110.414 161.039 116.766 163.645 124.926" fill="#FFB27D"/>
<path d="M169.462 135.366C169.385 135.724 169.292 136.071 169.188 136.431C166.254 146.241 163.881 185.455 163.881 185.455C165.436 190.357 136.939 191.361 121.224 189.095C115.51 188.275 111.486 187.021 111.21 185.365C108.398 179.027 115.279 167.189 119.252 161.172C119.752 160.417 120.18 159.622 120.533 158.797C121.431 156.728 121.865 154.473 121.774 152.2C121.655 149.091 121.389 146.072 121.065 143.245C120.456 137.912 119.643 133.255 119.218 129.959V129.957C120.044 129.134 120.849 128.372 121.599 127.647C122.742 126.529 123.744 125.494 124.448 124.489C125.221 123.394 125.652 122.325 125.556 121.205C125.482 120.357 125.33 119.498 125.118 118.65C125.019 118.248 124.908 117.851 124.788 117.451C123.512 113.27 121.163 109.653 121.163 109.653C125.418 107.165 133.615 107.089 133.615 107.089C133.615 107.089 133.67 107.537 133.774 108.27C134.173 111.208 135.294 118.745 136.442 120.034C137.877 121.644 160.54 126.302 161.33 123.725C162.106 121.191 157.425 110.526 157.25 110.122L157.245 110.108C164.503 111.834 167.655 113.783 167.798 113.899L167.79 113.896C163.852 117.345 171.53 125.968 169.462 135.366" fill="#F0B35B"/>
<path d="M156.613 94.8844C156.613 94.8844 155.893 99.0259 155.491 102.953C148.098 102.001 144.855 94.8451 143.625 90.9345L156.613 94.8844Z" fill="#ED985F"/>
<path d="M158.716 98.8526C158.716 98.8526 141.144 97.3859 142.226 86.458C143.308 75.5278 141.769 67.9793 153.033 68.4528C164.298 68.9286 166.062 73.3127 166.588 77.05C167.114 80.785 163.314 98.9519 158.716 98.8526Z" fill="#FFB27D"/>
<path d="M166.675 70.9223C164.293 67.3629 162.171 67.8803 160.924 68.7534C151.863 62.5215 144.904 69.6958 144.904 69.6958C142.946 77.4199 136.842 81.3443 136.842 81.3443C136.842 81.3443 139.842 83.6403 147.403 82.4831C149.712 82.1297 151.883 80.7299 153.786 78.9606C150.302 83.6611 145.881 86.8579 145.881 86.8579C155.094 83.6703 159.856 71.777 160.337 70.5181C161.312 71.5876 163.214 73.8882 163.653 75.9994C164.249 78.8682 164.068 84.6382 165.757 84.6104C165.757 84.6104 170.249 76.2581 166.675 70.9223" fill="#2C3A64"/>
<path d="M245.074 152.649C243.316 154.323 241.538 158.509 236.126 158.43C232.266 158.398 228.355 158.832 226.464 159.065C225.727 159.192 225.297 159.246 225.297 159.246L225.105 153.113C225.105 153.113 225.184 153.122 225.36 153.092C226.667 152.896 233.305 151.875 235.934 150.131C238.886 148.154 245.783 149.988 245.783 149.988C245.783 149.988 246.843 151.006 245.074 152.649" fill="#FFB27D"/>
<path d="M130.822 357.326H103.542C103.542 357.326 102.889 353.168 104.313 350.016C105.679 346.987 107.817 345.613 107.305 341.95C109.038 343.735 111.864 345.733 115.808 345.204C116.291 345.987 118.927 350.18 120.541 351.339C122.324 352.619 130.273 352.164 130.822 357.326" fill="#233862"/>
<path d="M189.393 357.326H162.113C162.113 357.326 161.094 352.974 162.884 350.016C164.47 347.394 163.862 345.902 162.688 343.735C163.924 344.241 165.523 344.701 167.283 344.601C168.642 344.523 170.079 343.906 171.34 343.174C172.514 344.511 177.541 350.21 179.112 351.339C180.895 352.619 188.844 352.164 189.393 357.326" fill="#233862"/>
<path d="M154.525 92.5328C154.525 92.5328 154.771 93.9788 158.332 93.9834C158.332 93.9834 161.321 93.9857 161.328 92.4127C161.328 92.4127 158.511 91.1169 154.525 92.5328Z" fill="white"/>
<path d="M124.948 161.997C123.869 168.831 118.925 182.545 121.224 189.096C115.51 188.276 111.486 187.021 111.21 185.365C108.398 179.027 115.279 167.189 119.252 161.172C119.752 160.417 120.18 159.622 120.533 158.798C121.431 156.728 121.865 154.474 121.774 152.201C121.655 149.092 121.389 146.073 121.065 143.245C121.065 143.245 126.096 154.732 124.948 161.997" fill="#F0B35B"/>
<path d="M163.562 115.881C163.752 121.956 168.146 138.633 169.188 136.432C170.379 133.921 174.992 124.377 177.159 124.025C177.045 123.584 168.177 113.781 167.79 113.894C167.79 113.894 165.381 114.629 163.562 115.881" fill="#F0B35B"/>
<path d="M121.735 202.056L117.209 205.068C117.209 205.068 116.064 203.639 114.251 201.35C113.709 200.661 113.419 200.245 113.419 200.245C111.984 198.398 110.317 196.129 108.493 193.672L108.462 193.642C105.406 189.35 102.049 184.467 99.4797 180.053C97.6944 176.925 96.3044 174.026 95.6253 171.749C95.5504 171.523 95.5095 171.322 95.4631 171.063C94.1347 165.286 96.5712 153.818 100.449 142.626C100.982 141.081 101.545 139.559 102.083 138.069C104.146 132.581 106.464 127.425 108.792 123.256C110.157 120.75 111.518 118.565 112.83 116.934C113.284 116.352 113.712 115.8 114.174 115.331C114.424 115.049 114.674 114.774 114.92 114.513C117.638 114.744 123.342 115.821 127.575 120.711C127.502 120.967 127.427 121.223 127.35 121.487C125.639 127.007 122.995 133.782 120.256 140.421C118.765 144.068 117.241 147.687 115.905 151.092C115.059 153.127 114.292 155.067 113.601 156.857C112.298 160.29 111.331 163.145 110.947 165.145C110.687 166.443 111.058 168.887 111.759 171.89C112.96 177.122 115.247 184.169 117.373 190.154C118.242 192.651 119.098 194.974 119.813 196.901C120.958 200.019 121.735 202.056 121.735 202.056" fill="#FFB27D"/>
<path d="M123.713 137.988C119.193 131.165 106.236 128.229 106.236 128.229C113.547 105.031 132.741 107.182 132.741 107.182C132.741 107.182 125.759 131.315 123.713 137.988" fill="#F0B35B"/>
<path d="M117.207 205.068C117.207 205.068 118.396 206.824 118.529 208.085C118.662 209.349 119.791 213.534 121.253 214.865C122.715 216.193 126.037 218.851 126.502 218.452C126.967 218.052 128.313 214.92 127.065 212.705C126.502 211.705 125.738 208.917 124.73 208.242C123.507 207.422 121.733 202.056 121.733 202.056L117.207 205.068" fill="#FFB27D"/>
<path d="M121.752 202.737C121.752 202.737 125.351 204.564 125.838 206.026C126.326 207.489 128.337 210.436 128.131 210.778C127.91 211.143 124.781 209.147 123.718 207.331C122.655 205.516 121.752 202.737 121.752 202.737Z" fill="#FFB27D"/>
<path d="M207.396 185.737L339.196 106.833C346.463 102.481 355.536 102.481 362.805 106.833L494.604 185.737V314.34L207.396 299.94V185.737" fill="#F0B35B"/>
<path d="M469.882 334.232H232.119V128.758H469.882V334.232Z" fill="#FCECDB"/>
<path d="M239.377 137.722C239.377 136.371 240.472 135.278 241.821 135.278C243.172 135.278 244.267 136.371 244.267 137.722C244.267 139.071 243.172 140.166 241.821 140.166C240.472 140.166 239.377 139.071 239.377 137.722Z" fill="#EFCBAB"/>
<path d="M457.59 137.722C457.59 136.371 458.685 135.278 460.034 135.278C461.385 135.278 462.48 136.371 462.48 137.722C462.48 139.071 461.385 140.166 460.034 140.166C458.685 140.166 457.59 139.071 457.59 137.722Z" fill="#EFCBAB"/>
<path d="M460.033 137.988H241.82V137.457H460.033V137.988Z" fill="#EFCBAB"/>
<path d="M241.555 354.963V136.75H242.086V354.963H241.555Z" fill="#EFCBAB"/>
<path d="M459.854 354.963V136.75H460.385V354.963H459.854Z" fill="#EFCBAB"/>
<path d="M494.604 185.384V357.326H207.396V185.384L350.999 271.356L494.604 185.384Z" fill="#FFD84F"/>
<path d="M207.396 357.326L338.944 263.015C346.151 257.848 355.848 257.848 363.054 263.015L494.604 357.326H207.396Z" fill="#F0B35B"/>
<path d="M394.841 157.225H308.152C306.893 157.225 305.863 156.194 305.863 154.936C305.863 153.677 306.893 152.647 308.152 152.647H394.841C396.099 152.647 397.13 153.677 397.13 154.936C397.13 156.194 396.099 157.225 394.841 157.225Z" fill="#EFCBAB"/>
<path d="M417.171 166.406H285.824C284.565 166.406 283.535 165.376 283.535 164.117C283.535 162.858 284.565 161.828 285.824 161.828H417.171C418.43 161.828 419.46 162.858 419.46 164.117C419.46 165.376 418.43 166.406 417.171 166.406Z" fill="#EFCBAB"/>
<path d="M400.137 194.889H305.103C304.191 194.889 303.447 194.143 303.447 193.233C303.447 192.322 304.191 191.576 305.103 191.576H400.137C401.047 191.576 401.793 192.322 401.793 193.233C401.793 194.143 401.047 194.889 400.137 194.889Z" fill="#EFCBAB"/>
<path d="M314.646 203.537H287.85C286.939 203.537 286.193 202.791 286.193 201.881C286.193 200.971 286.939 200.225 287.85 200.225H314.646C315.556 200.225 316.302 200.971 316.302 201.881C316.302 202.791 315.556 203.537 314.646 203.537Z" fill="#EFCBAB"/>
<path d="M355.058 203.537H322.683C321.773 203.537 321.029 202.791 321.029 201.881C321.029 200.971 321.773 200.225 322.683 200.225H355.058C355.968 200.225 356.714 200.971 356.714 201.881C356.714 202.791 355.968 203.537 355.058 203.537Z" fill="#EFCBAB"/>
<path d="M417.389 203.537H361.424C360.514 203.537 359.768 202.791 359.768 201.881C359.768 200.971 360.514 200.225 361.424 200.225H417.389C418.299 200.225 419.045 200.971 419.045 201.881C419.045 202.791 418.299 203.537 417.389 203.537Z" fill="#EFCBAB"/>
<path d="M355.271 213.592H303.216C302.306 213.592 301.562 212.848 301.562 211.936C301.562 211.026 302.306 210.28 303.216 210.28H355.271C356.181 210.28 356.927 211.026 356.927 211.936C356.927 212.848 356.181 213.592 355.271 213.592Z" fill="#EFCBAB"/>
<path d="M402.023 213.592H361.023C360.113 213.592 359.369 212.848 359.369 211.936C359.369 211.026 360.113 210.28 361.023 210.28H402.023C402.933 210.28 403.679 211.026 403.679 211.936C403.679 212.848 402.933 213.592 402.023 213.592Z" fill="#EFCBAB"/>
<path d="M356.629 246.5C356.116 245.539 356.85 244.354 357.689 243.571C357.361 244.555 357.005 245.532 356.629 246.5ZM355.081 232.415C355.07 231.925 355.328 231.033 355.89 231.043C355.635 231.592 355.374 232.137 355.1 232.676C355.09 232.588 355.083 232.5 355.081 232.415ZM369.894 234.038C366.762 236.637 363.413 238.804 359.883 240.781C360.181 239.845 360.431 238.875 360.384 238.009C360.322 236.817 359.37 236.295 358.419 235.801C358.183 235.678 357.964 235.549 357.744 235.42C358.114 235.057 358.303 234.556 358.061 234.006C357.659 233.105 356.532 233.251 356.151 234.085C356.079 234.239 356.037 234.389 356.021 234.537C355.866 234.456 355.751 234.369 355.649 234.244C356.229 233.161 356.777 232.059 357.28 230.932C357.393 230.678 357.25 230.377 357.044 230.225C356.208 229.594 355.067 229.798 354.395 230.59C353.598 231.53 353.799 232.96 354.18 234.027C354.208 234.103 354.238 234.177 354.268 234.251C353.529 235.584 352.725 236.882 351.864 238.143C351.785 238.062 351.702 237.981 351.621 237.9C351.397 237.683 351.157 237.402 350.949 237.092C351.344 236.064 351.596 234.985 351.69 233.861C351.732 233.359 351.231 233.112 350.813 233.267C349.653 233.697 349.027 234.875 349.177 236.087C349.23 236.503 349.364 236.9 349.556 237.268C349.297 237.829 348.99 238.374 348.627 238.898C348.392 239.238 348.56 239.584 348.835 239.746C348.456 241.009 347.944 242.305 347.071 243.218C346.357 243.961 345.026 244.527 344.158 243.643C343.608 243.084 343.539 242.148 343.463 241.409C343.278 239.587 343.142 237.695 343.206 235.861C343.239 234.992 343.331 234.11 343.629 233.29C343.814 232.78 344.07 232.006 344.32 232.886C344.44 233.315 344.273 233.985 344.23 234.424C344.151 235.207 345.366 235.297 345.444 234.517C345.537 233.6 345.948 231.671 344.909 231.096C344.047 230.618 343.255 231.304 342.855 232.02C341.421 234.595 341.991 238.136 342.208 240.936C342.379 243.169 343.215 245.911 346.068 245.2C348.752 244.532 349.738 241.148 350.355 238.82C350.394 238.674 350.383 238.543 350.337 238.429L350.369 238.372C350.48 238.483 350.593 238.593 350.706 238.707C350.863 238.845 351.016 238.995 351.161 239.148C350.88 239.538 350.591 239.926 350.297 240.31C350.131 240.527 350.18 240.852 350.346 241.053C351.249 242.139 352.873 241.333 352.841 239.998C352.834 239.688 352.757 239.413 352.637 239.162C353.485 237.942 354.277 236.685 355.012 235.397C355.395 235.771 355.88 236.011 356.476 235.983C356.516 235.981 356.557 235.976 356.599 235.972C356.911 236.302 357.303 236.577 357.661 236.778C358.008 236.974 358.407 237.094 358.719 237.348C359.297 237.822 359.126 238.362 358.999 239.035C358.83 239.919 358.548 240.804 358.289 241.665C357.063 242.37 355.853 243.266 355.439 244.677C355.063 245.966 355.398 247.322 356.502 248.121C356.834 248.364 357.275 248.17 357.419 247.819C358.112 246.117 358.735 244.386 359.273 242.629C359.29 242.573 359.308 242.515 359.327 242.46C360.41 241.843 361.544 241.301 362.613 240.668C365.459 238.984 368.157 237.064 370.698 234.953C371.303 234.452 370.497 233.535 369.894 234.038" fill="#F99746"/>
<path d="M312.619 92.3735L300.238 65.0574L326.989 69.7718C327.282 69.8249 327.578 69.8503 327.869 69.8503C329.636 69.8503 331.303 68.924 332.225 67.3672L345.867 44.3751L358.248 71.6912L312.619 92.3735" fill="#DCE9FB"/>
<path d="M327.869 69.8506C327.578 69.8506 327.282 69.8252 326.989 69.7721L300.238 65.0577L345.867 44.3754L332.225 67.3675C331.303 68.9243 329.636 69.8506 327.869 69.8506Z" fill="#CEE1F6"/>
<path d="M54.9545 251.09L48.4414 233.623L64.8267 237.688C65.0787 237.751 65.3333 237.781 65.5853 237.781C66.6044 237.781 67.5805 237.284 68.1774 236.42L77.6161 222.743L84.1289 240.211L54.9545 251.09" fill="#DCE9FB"/>
<path d="M65.5853 237.78C65.3333 237.78 65.0787 237.75 64.8267 237.688L48.4414 233.623L77.6161 222.743L68.1774 236.42C67.5805 237.284 66.6044 237.78 65.5853 237.78" fill="#CEE1F6"/>
<path d="M568.079 153.083L510.793 137.796L519.945 103.5L540.897 127.88C542.059 129.232 543.731 129.968 545.447 129.968C546.133 129.968 546.829 129.851 547.499 129.606L577.233 118.787L568.079 153.083Z" fill="#DCE9FB"/>
<path d="M545.446 129.969C543.73 129.969 542.058 129.232 540.896 127.881L519.943 103.5L577.232 118.787L547.497 129.606C546.828 129.851 546.132 129.969 545.446 129.969" fill="#CEE1F6"/>
<path d="M82.4211 273.477C82.2837 273.477 82.1673 273.371 82.1564 273.232C82.1451 273.084 82.2548 272.957 82.401 272.946C84.8705 272.756 86.4072 272.689 86.4225 272.689C86.5696 272.678 86.6927 272.798 86.699 272.943C86.7052 273.091 86.5913 273.214 86.4446 273.22C86.4296 273.22 84.901 273.285 82.4419 273.475L82.4211 273.477ZM74.4621 274.262C74.3295 274.262 74.2147 274.165 74.1986 274.029C74.1808 273.883 74.2847 273.752 74.4305 273.733C75.7402 273.576 77.0792 273.428 78.4103 273.297C78.5554 273.285 78.6866 273.389 78.7009 273.535C78.7152 273.68 78.6085 273.812 78.4625 273.826C77.1353 273.957 75.8002 274.103 74.4942 274.262H74.4621ZM66.5512 275.412C66.4239 275.412 66.3116 275.322 66.2895 275.193C66.2645 275.048 66.3615 274.911 66.5063 274.886C67.7807 274.666 69.1114 274.456 70.4612 274.26C70.6086 274.237 70.7414 274.341 70.7625 274.484C70.7835 274.629 70.6828 274.766 70.5377 274.787C69.1922 274.981 67.8664 275.191 66.5967 275.41L66.5512 275.412ZM58.7224 277.027C58.603 277.027 58.4942 276.946 58.4644 276.824C58.4295 276.683 58.5168 276.537 58.6594 276.503C59.9018 276.198 61.2175 275.902 62.5701 275.625C62.7143 275.597 62.8545 275.69 62.8838 275.833C62.9134 275.976 62.8205 276.117 62.6769 276.147C61.3307 276.422 60.0217 276.715 58.7862 277.02C58.7647 277.025 58.7434 277.027 58.7224 277.027V277.027ZM235.087 277.51C234.962 277.51 234.849 277.422 234.826 277.295C234.798 277.149 234.893 277.011 235.036 276.983C235.306 276.932 235.461 276.902 235.491 276.898C235.648 276.861 235.817 276.988 235.817 277.156C235.817 277.376 235.791 277.38 235.135 277.505L235.087 277.51ZM227.206 278.988C227.081 278.988 226.968 278.898 226.945 278.771C226.919 278.628 227.014 278.489 227.157 278.461C228.659 278.184 229.975 277.939 231.096 277.729C231.239 277.702 231.377 277.796 231.405 277.942C231.433 278.085 231.338 278.224 231.193 278.251C230.072 278.461 228.756 278.706 227.254 278.984L227.206 278.988ZM51.0762 279.332C50.9685 279.332 50.8669 279.268 50.8272 279.159C50.7759 279.023 50.8459 278.87 50.9835 278.817C52.1609 278.378 53.4417 277.953 54.7897 277.549C54.9311 277.508 55.0786 277.588 55.1205 277.729C55.1625 277.87 55.0826 278.018 54.9419 278.06C53.605 278.459 52.3357 278.882 51.169 279.316C51.1385 279.328 51.1071 279.332 51.0762 279.332ZM219.338 280.427C219.211 280.427 219.101 280.337 219.077 280.208C219.05 280.065 219.147 279.926 219.29 279.898C220.678 279.649 221.992 279.409 223.224 279.184C223.369 279.157 223.508 279.254 223.533 279.397C223.559 279.542 223.464 279.681 223.321 279.706C222.087 279.933 220.773 280.171 219.385 280.423L219.338 280.427ZM211.471 281.834C211.344 281.834 211.233 281.744 211.21 281.614C211.185 281.469 211.279 281.333 211.425 281.307C212.783 281.065 214.095 280.831 215.359 280.607C215.502 280.58 215.64 280.677 215.666 280.822C215.691 280.965 215.597 281.104 215.451 281.129C214.188 281.356 212.876 281.589 211.517 281.829L211.471 281.834ZM43.9526 282.892C43.8688 282.892 43.7861 282.85 43.7343 282.776C43.6505 282.656 43.6798 282.492 43.8004 282.407C44.8043 281.707 45.977 281.028 47.2857 280.39C47.4174 280.326 47.5768 280.379 47.6412 280.513C47.7054 280.644 47.6507 280.804 47.5188 280.866C46.2347 281.494 45.0861 282.157 44.1044 282.843C44.0582 282.876 44.005 282.892 43.9526 282.892V282.892ZM203.602 283.213C203.474 283.213 203.364 283.12 203.341 282.991C203.315 282.848 203.412 282.709 203.558 282.684C204.9 282.451 206.212 282.222 207.491 281.998C207.637 281.975 207.773 282.069 207.799 282.215C207.824 282.358 207.727 282.497 207.584 282.522C206.304 282.746 204.992 282.975 203.648 283.208L203.602 283.213ZM195.732 284.562C195.605 284.562 195.492 284.472 195.471 284.34C195.445 284.197 195.543 284.061 195.688 284.035C197.023 283.809 198.335 283.585 199.624 283.363C199.767 283.338 199.906 283.435 199.929 283.58C199.954 283.726 199.857 283.862 199.712 283.887C198.425 284.109 197.111 284.333 195.776 284.559L195.732 284.562ZM187.857 285.885C187.73 285.885 187.617 285.793 187.596 285.664C187.571 285.518 187.669 285.382 187.814 285.356C189.144 285.137 190.457 284.917 191.751 284.7C191.898 284.675 192.033 284.772 192.057 284.917C192.082 285.063 191.984 285.199 191.839 285.225C190.544 285.442 189.231 285.661 187.901 285.881L187.857 285.885ZM179.979 287.177C179.851 287.177 179.738 287.084 179.717 286.955C179.693 286.809 179.792 286.673 179.937 286.65C181.263 286.435 182.577 286.22 183.876 286.008C184.021 285.982 184.158 286.082 184.181 286.225C184.205 286.37 184.107 286.507 183.962 286.532C182.662 286.745 181.349 286.959 180.022 287.174L179.979 287.177ZM172.096 288.44C171.968 288.44 171.855 288.348 171.834 288.216C171.811 288.07 171.91 287.934 172.055 287.911C173.379 287.703 174.693 287.493 175.996 287.285C176.14 287.262 176.278 287.359 176.301 287.505C176.324 287.65 176.226 287.786 176.08 287.809C174.777 288.017 173.462 288.227 172.138 288.438L172.096 288.44ZM39.2817 289.064L39.229 289.059C39.0851 289.029 38.992 288.89 39.0209 288.747C39.2763 287.479 39.8755 286.257 40.802 285.116C40.8949 285.003 41.0619 284.984 41.176 285.077C41.2898 285.169 41.3072 285.338 41.2148 285.451C40.343 286.525 39.7801 287.669 39.542 288.851C39.5166 288.978 39.4057 289.064 39.2817 289.064V289.064ZM164.209 289.669C164.08 289.669 163.967 289.576 163.947 289.445C163.925 289.299 164.024 289.163 164.169 289.142C165.491 288.939 166.806 288.733 168.113 288.53C168.258 288.509 168.394 288.606 168.416 288.752C168.439 288.897 168.34 289.034 168.195 289.057C166.888 289.26 165.572 289.463 164.25 289.667L164.209 289.669ZM156.317 290.865C156.188 290.865 156.074 290.771 156.055 290.639C156.033 290.493 156.133 290.357 156.278 290.336C157.599 290.14 158.914 289.941 160.224 289.743C160.371 289.722 160.505 289.821 160.527 289.967C160.549 290.112 160.449 290.246 160.304 290.269C158.993 290.468 157.677 290.664 156.357 290.861L156.317 290.865ZM148.419 292.02C148.29 292.02 148.176 291.926 148.157 291.794C148.136 291.648 148.237 291.514 148.382 291.491C149.701 291.302 151.018 291.112 152.331 290.918C152.476 290.895 152.611 290.997 152.632 291.145C152.653 291.288 152.553 291.424 152.408 291.445C151.094 291.637 149.777 291.829 148.458 292.018L148.419 292.02ZM140.516 293.138C140.386 293.138 140.272 293.041 140.253 292.907C140.233 292.762 140.335 292.628 140.48 292.609C141.798 292.427 143.116 292.242 144.432 292.057C144.575 292.034 144.712 292.136 144.732 292.281C144.753 292.427 144.651 292.563 144.506 292.582C143.19 292.769 141.872 292.953 140.553 293.136L140.516 293.138ZM132.595 294.21C132.464 294.21 132.35 294.111 132.332 293.979C132.313 293.831 132.415 293.699 132.561 293.679C133.879 293.505 135.198 293.33 136.518 293.15C136.665 293.131 136.797 293.233 136.816 293.378C136.836 293.524 136.734 293.658 136.589 293.676C135.269 293.857 133.949 294.032 132.631 294.205L132.595 294.21ZM124.698 295.224C124.566 295.224 124.451 295.127 124.435 294.993C124.416 294.847 124.52 294.714 124.665 294.695C125.977 294.531 127.293 294.365 128.61 294.194C128.755 294.178 128.889 294.279 128.908 294.425C128.927 294.57 128.824 294.704 128.678 294.723C127.36 294.891 126.044 295.06 124.731 295.224H124.698ZM116.774 296.187C116.641 296.187 116.526 296.086 116.51 295.952C116.493 295.806 116.598 295.674 116.743 295.656C118.059 295.501 119.38 295.344 120.705 295.185C120.851 295.166 120.983 295.27 121.001 295.416C121.019 295.561 120.915 295.695 120.769 295.711C119.443 295.873 118.122 296.03 116.805 296.185L116.774 296.187ZM41.6887 296.247C41.6345 296.247 41.5797 296.231 41.5324 296.196C40.7625 295.635 40.2068 295.002 39.8804 294.312C39.642 293.806 39.4431 293.3 39.2895 292.808C39.2459 292.667 39.3242 292.519 39.4644 292.475C39.6037 292.431 39.7536 292.51 39.797 292.651C39.9432 293.12 40.1331 293.602 40.361 294.083C40.6489 294.693 41.1482 295.259 41.8456 295.767C41.9641 295.855 41.9902 296.021 41.9038 296.139C41.8518 296.21 41.771 296.247 41.6887 296.247V296.247ZM108.842 297.081C108.708 297.081 108.593 296.979 108.578 296.843C108.563 296.698 108.668 296.566 108.814 296.55C110.129 296.409 111.451 296.261 112.78 296.111C112.926 296.097 113.057 296.201 113.074 296.347C113.09 296.492 112.985 296.624 112.839 296.64C111.509 296.79 110.187 296.936 108.871 297.079L108.842 297.081ZM100.901 297.894C100.766 297.894 100.651 297.793 100.637 297.656C100.623 297.508 100.73 297.379 100.876 297.365C102.189 297.238 103.513 297.104 104.846 296.968C104.991 296.956 105.123 297.058 105.138 297.206C105.153 297.351 105.046 297.481 104.9 297.497C103.567 297.633 102.242 297.767 100.927 297.894H100.901ZM92.9512 298.617C92.8143 298.617 92.6981 298.511 92.6865 298.372C92.674 298.227 92.7828 298.097 92.9291 298.086C94.2408 297.975 95.5662 297.86 96.9036 297.737C97.0512 297.726 97.1792 297.832 97.1926 297.98C97.2057 298.125 97.0981 298.254 96.9519 298.268C95.6131 298.388 94.2866 298.506 92.9736 298.615L92.9512 298.617ZM49.1553 298.862L49.1082 298.857C47.6414 298.594 46.3264 298.28 45.1999 297.922C45.0602 297.878 44.9828 297.728 45.0272 297.589C45.0715 297.448 45.2212 297.37 45.3609 297.416C46.4655 297.767 47.7578 298.077 49.202 298.335C49.3465 298.361 49.4426 298.499 49.4168 298.643C49.3934 298.772 49.2816 298.862 49.1553 298.862V298.862ZM84.9906 299.222C84.852 299.222 84.7351 299.116 84.7257 298.975C84.7157 298.827 84.8264 298.703 84.973 298.691C86.282 298.603 87.6088 298.506 88.9524 298.405C89.0986 298.393 89.2264 298.504 89.2377 298.649C89.2488 298.795 89.1391 298.924 88.9929 298.936C87.6478 299.038 86.3194 299.132 85.0088 299.222H84.9906ZM77.0194 299.68C76.8782 299.68 76.7604 299.569 76.7539 299.428C76.7472 299.28 76.8604 299.155 77.0071 299.148C78.2863 299.091 79.6269 299.019 80.9909 298.941C81.1373 298.938 81.2632 299.044 81.2718 299.192C81.2801 299.338 81.1681 299.465 81.0216 299.472C79.6556 299.55 78.3131 299.622 77.0318 299.68H77.0194ZM57.0764 299.74H57.06C55.6543 299.654 54.3134 299.546 53.0746 299.414C52.9287 299.398 52.8231 299.266 52.8386 299.121C52.854 298.975 52.9855 298.869 53.131 298.885C54.3617 299.017 55.6945 299.125 57.0921 299.208C57.2386 299.218 57.3501 299.345 57.3414 299.49C57.333 299.631 57.2159 299.74 57.0764 299.74ZM69.0379 299.941C68.8931 299.941 68.7748 299.825 68.7723 299.68C68.7698 299.532 68.8869 299.412 69.0335 299.409C70.3102 299.386 71.6517 299.354 73.021 299.308C73.1739 299.296 73.2906 299.419 73.2954 299.564C73.3003 299.712 73.1852 299.834 73.0383 299.839C71.6665 299.885 70.322 299.918 69.0425 299.941H69.0379ZM65.0458 299.971H65.0451C63.6609 299.966 62.3175 299.948 61.0521 299.913C60.9052 299.908 60.7897 299.786 60.7936 299.638C60.7976 299.493 60.9156 299.377 61.0667 299.382C62.3276 299.416 63.6666 299.435 65.0465 299.439C65.1932 299.439 65.3122 299.557 65.3117 299.705C65.3112 299.851 65.1923 299.971 65.0458 299.971Z" fill="#AFCDFB"/>
<path d="M243.971 291.51L276.713 272.955L246.845 274.72L249.15 279.764L242.98 286.599L243.971 291.51" fill="#AFCDFB"/>
<path d="M276.713 272.954L242.402 279.242L217.412 296.598L276.713 272.954Z" fill="white"/>
<path d="M246.845 274.719L276.714 272.954L245.471 263.798L246.845 274.719Z" fill="white"/>
<path d="M421.074 47.7174L458.244 53.6006L433.783 36.3738L432.443 41.7557L423.359 43.2571L421.074 47.7174" fill="#AFCDFB"/>
<path d="M458.243 53.6006L427.489 37.143L397.129 35.1519L458.243 53.6006Z" fill="white"/>
<path d="M433.781 36.3738L458.242 53.6006L439.51 26.9751L433.781 36.3738Z" fill="white"/>
<path d="M533.629 198.319C533.629 198.319 526.049 198.846 520.454 212.495C514.811 226.261 527.432 226.125 523.182 234.895C518.93 243.666 529.301 248.898 532.451 256.079C535.6 263.258 551.471 280.582 552.727 288.481C553.984 296.381 568.095 280.268 568.095 280.268C568.095 280.268 582.439 264.967 577.297 256.079C568.82 241.428 576.163 238.245 575.897 230.061C575.632 221.88 560.1 189.639 533.629 198.319" fill="#233862"/>
<path d="M529.514 247.285C529.514 247.285 500.172 260.075 494.598 259.83C489.025 259.587 454.68 249.368 454.68 249.368L455.555 255.277C455.555 255.277 482.061 270.522 491.325 271.386C500.449 272.238 531.644 263.197 534.656 261.29C537.668 259.382 538.266 249.216 529.514 247.285" fill="#FFAD76"/>
<path d="M527.146 261.306C529.844 263.177 533.224 264.72 537.469 265.7C553.382 269.377 559.48 255.929 561.769 246.697C559.6 245.454 557.558 245.181 556.38 245.04C555.229 244.904 554.019 244.814 553.017 244.766C551.231 243.396 548.568 237.794 547.979 229.098L547.231 229.299L534.69 232.731C534.69 232.731 535.266 236.718 535.547 240.485C535.764 243.435 536.148 245.147 535.589 245.835C534.61 246.047 533.674 247.292 533.674 247.292L533.667 247.304C533.499 247.581 529.861 253.564 527.146 261.306" fill="#FFB27D"/>
<path d="M534.689 232.733C534.689 232.733 535.265 236.718 535.544 240.487C542.649 239.776 545.948 233.013 547.23 229.301L534.689 232.733Z" fill="#ED985F"/>
<path d="M532.567 236.475C532.567 236.475 549.432 235.544 548.69 225.052C547.949 214.559 549.628 207.373 538.829 207.523C528.031 207.673 526.225 211.824 525.619 215.388C525.014 218.95 528.163 236.447 532.567 236.475" fill="#FFB27D"/>
<path d="M566.573 295.593C568.095 287.809 573.061 256.705 568.095 246.696C566.312 243.1 559.315 242.777 551.637 243.091C549.249 244.634 540.144 250.461 536.406 249.734C536.365 249.727 536.293 249.711 536.196 249.685C534.436 249.244 534.12 246.902 535.589 245.835C535.591 245.832 531.438 246.574 526.714 247.463C524.049 247.967 516.854 251.688 516.854 251.688C516.854 251.688 520.475 258.234 525.818 260.493C524.91 268.619 526.262 272.204 534.69 290.971C541.814 306.835 533.729 321.119 533.729 321.119C533.729 321.119 575.662 354.831 575.895 337.667C576.071 324.743 564.626 305.544 566.573 295.593Z" fill="#4B30E8"/>
<path d="M531.65 357.778C529.37 357.52 527.317 356.272 526.042 354.364C525.841 354.059 525.623 353.736 525.393 353.387C520.62 346.162 518.763 324.034 508.027 300.46C505.412 294.72 496.025 293.687 493.466 287.199C493.466 287.199 487.165 266.17 505.523 265.551C523.882 264.93 554.691 324.061 555.176 330.263C555.647 336.271 567.314 361.802 531.65 357.778" fill="#233862"/>
<path d="M458.684 357.294H484.812C484.812 357.294 485.79 353.127 484.073 350.291C482.556 347.782 483.138 346.352 484.263 344.276C483.08 344.761 481.549 345.202 479.863 345.105C478.56 345.031 477.183 344.44 475.975 343.737C474.85 345.022 470.036 350.478 468.53 351.559C466.823 352.787 459.21 352.349 458.684 357.294" fill="#172B4C"/>
<path d="M563.817 254.848C563.817 254.848 567.22 285.79 545.163 292.272C523.109 298.755 516.847 263.805 534.656 261.29C552.462 258.777 563.817 254.848 563.817 254.848Z" fill="#4B30E8"/>
<path d="M492.867 271.628C491.294 283.424 485.15 320.654 474.313 338.819C470.818 344.674 483.115 347.957 483.182 347.94C484.832 347.508 487.58 344.88 488.846 343.736C497.647 335.807 515.509 313.353 515.509 295.35C515.509 286.57 515.661 269.805 509.279 265.546C505.348 262.922 493.493 266.944 492.867 271.628Z" fill="#233862"/>
<path d="M547.233 357.293C547.233 357.293 546.262 355.947 544.574 353.388C542.567 350.343 540.342 344.354 537.644 336.676C534.81 328.617 531.447 318.701 527.245 308.383C525.95 305.197 524.573 301.975 523.109 298.755C520.491 293.018 513.299 293.81 510.739 287.321C510.739 287.321 500.752 264.831 519.11 264.209C537.469 263.588 572.352 324.376 574.357 330.264C576.551 336.708 587.26 363.47 547.233 357.293" fill="#2B478B"/>
<path d="M477.865 357.294H503.994C503.994 357.294 504.971 353.127 503.255 350.291C501.737 347.782 502.319 346.352 503.444 344.276C502.259 344.761 500.73 345.202 499.044 345.105C497.741 345.031 496.365 344.44 495.157 343.737C494.032 345.022 489.218 350.478 487.712 351.559C486.005 352.787 478.392 352.349 477.865 357.294" fill="#233862"/>
<path d="M537.645 336.676C534.811 328.617 531.448 318.701 527.246 308.383C528.343 300.566 530.711 293.727 534.691 290.971C534.691 290.971 544.348 320.883 537.645 336.676Z" fill="#23407A"/>
<path d="M508.122 270.794C506.547 282.588 504.332 320.654 493.494 338.819C489.999 344.674 502.297 347.957 502.364 347.94C504.013 347.508 506.762 344.88 508.028 343.736C516.826 335.807 534.69 313.353 534.69 295.35C534.69 286.57 524.388 270.51 518.004 266.251C514.073 263.627 508.746 266.107 508.122 270.794" fill="#2B478B"/>
<path d="M475.768 239.859C475.768 239.859 474.431 236.459 471.996 236.678C469.56 236.9 447.434 239.859 447.434 239.859C447.434 239.859 450.009 240.475 450.981 242.164L461.186 272.24H487.366L475.768 239.859Z" fill="#EBF3FA"/>
<path d="M561.768 246.696C561.768 246.696 524.684 260.354 519.11 260.075C515.509 259.892 485.571 249.369 485.571 249.369L482.883 254.453C482.883 254.453 512.021 273.183 520.032 273.089C535.85 272.906 562.535 263.198 565.547 261.29C568.557 259.382 570.523 248.627 561.768 246.696Z" fill="#FFBF94"/>
<path d="M485.57 249.369C485.57 249.369 482.882 245.235 480.207 245.112C477.53 244.99 472.908 246.937 471.326 247.242C469.746 247.544 465.244 249.004 466.584 251.194C467.921 253.384 474.125 253.871 476.8 253.384C479.477 252.896 482.882 254.453 482.882 254.453L485.57 249.369Z" fill="#FFBF94"/>
<path d="M480.936 245.239C480.936 245.239 476.681 243.287 475.464 242.922C474.246 242.557 474.491 242.929 474.856 244.082C475.221 245.234 477.411 246.334 477.411 246.696C477.411 247.059 480.936 245.239 480.936 245.239" fill="#FFBF94"/>
<path d="M529.412 230.442C529.412 230.442 531.006 229.811 535.492 230.174C535.492 230.174 535.254 231.924 531.944 232.098C530.07 232.195 529.412 230.442 529.412 230.442" fill="white"/>
<path d="M542.66 253.431C542.66 253.431 545.977 263.932 557.369 266.32C557.369 266.32 576.181 260.525 566.814 247.71C566.814 247.71 557.554 240.829 542.66 253.431Z" fill="#4B30E8"/>
<path d="M447.432 239.859C447.432 239.859 444.975 240.799 446.834 243.989L470.755 240.799C470.755 240.799 469.923 237.101 471.801 236.699L447.432 239.859" fill="white"/>
<path d="M456.005 247.711C456.571 245.435 456.536 244.886 455.252 243.497C454.402 242.58 453.101 244.856 452.429 246.228C452.182 245.623 451.762 244.636 451.619 244.588C451.413 244.516 451.905 247.644 451.905 247.644V247.641C451.893 247.771 451.889 247.902 451.891 248.034L451.889 248.032C451.889 248.032 450.852 252.628 455.374 255.111L454.51 252.577C455.035 252.492 455.428 250.018 456.005 247.711" fill="#FFAD76"/>
<path d="M531.928 209.843C531.928 209.843 535.483 208.595 537.206 212.229C538.927 215.86 539.474 224.543 546.376 225.252C553.278 225.961 553.543 210.545 553.543 210.545L536.268 203.724L527.146 209.482L531.928 209.843" fill="#233862"/>
<path d="M531.927 209.843C531.927 209.843 528.035 209.926 527.145 213.203C526.256 216.481 527.644 222.593 525.489 223.036C523.334 223.48 521.375 212.848 525.545 209.394C529.711 205.939 531.927 209.843 531.927 209.843Z" fill="#233862"/>
<path d="M226.391 152.931C226.391 152.931 230.287 151.455 230.731 150.436C231.174 149.417 232.459 148.974 234.008 148.265C235.558 147.556 236.489 146.271 236.711 146.449C236.933 146.625 236.977 147.512 236.355 148.177C235.736 148.84 233.11 153.492 232.119 154.023C231.128 154.554 226.391 152.931 226.391 152.931Z" fill="#FFB27D"/>
<path d="M630.684 357.106H605.638C604.296 355.968 606.569 353.381 608.941 353.207C609.971 353.129 611.274 353.346 612.764 353.66C613.108 349.082 615.076 328.504 622.493 329.331C630.834 330.257 622.493 338.394 620.137 343.21C618.388 346.779 616.548 351.895 615.704 354.309C616.381 354.457 617.083 354.6 617.799 354.732C618.906 351.339 623.017 339.921 628.249 340.586C634.391 341.365 631.922 345.943 627.568 348.659C624.376 350.657 620.453 353.498 618.589 354.871C620.169 355.127 621.816 355.302 623.489 355.263C627.778 355.162 629.873 356.425 630.684 357.106" fill="#82B378"/>
<path d="M69.3977 357.614C69.3977 357.614 59.8779 331.469 53.1939 333.698C46.5097 335.927 69.3977 357.614 69.3977 357.614Z" fill="#82B378"/>
<path d="M65.7525 357.614C64.9422 357.614 49.751 341.85 48.7384 345.977C47.7255 350.105 65.7525 357.614 65.7525 357.614Z" fill="#82B378"/>
<path d="M81.9556 357.614C81.9556 357.614 75.6731 351.854 67.7187 353.353C59.7643 354.854 56.367 356.496 51.3708 355.36C46.3746 354.223 43.8223 357.614 43.8223 357.614H81.9556Z" fill="#82B378"/>
<path d="M667.425 359.098H0.756935C0.340471 359.098 0 358.758 0 358.342V358.084C0 357.668 0.340471 357.326 0.756935 357.326H667.425C667.841 357.326 668.182 357.668 668.182 358.084V358.342C668.182 358.758 667.841 359.098 667.425 359.098Z" fill="#2E3552"/>
<path d="M275.794 347.177H226.31C223.545 347.177 221.305 344.936 221.305 342.171V328.677C221.305 325.915 223.545 323.674 226.31 323.674H275.794C278.559 323.674 280.797 325.915 280.797 328.677V342.171C280.797 344.936 278.559 347.177 275.794 347.177" fill="#FCECDB"/>
<path d="M265.727 329.516H228.453C228.035 329.516 227.695 329.176 227.695 328.76C227.695 328.345 228.035 328.003 228.453 328.003H265.727C266.143 328.003 266.484 328.345 266.484 328.76C266.484 329.176 266.143 329.516 265.727 329.516Z" fill="#EFCBAB"/>
<path d="M235.064 332.781H228.453C228.035 332.781 227.695 332.439 227.695 332.024C227.695 331.608 228.035 331.266 228.453 331.266H235.064C235.479 331.266 235.819 331.608 235.819 332.024C235.819 332.439 235.479 332.781 235.064 332.781Z" fill="#EFCBAB"/>
<path d="M255.891 332.781H237.678C237.262 332.781 236.92 332.439 236.92 332.024C236.92 331.608 237.262 331.266 237.678 331.266H255.891C256.306 331.266 256.646 331.608 256.646 332.024C256.646 332.439 256.306 332.781 255.891 332.781Z" fill="#EFCBAB"/>
<path d="M265.727 338.826H228.453C228.035 338.826 227.695 338.484 227.695 338.069C227.695 337.653 228.035 337.311 228.453 337.311H265.727C266.143 337.311 266.484 337.653 266.484 338.069C266.484 338.484 266.143 338.826 265.727 338.826Z" fill="#EFCBAB"/>
<path d="M241.982 342.09H228.453C228.035 342.09 227.695 341.748 227.695 341.332C227.695 340.916 228.035 340.575 228.453 340.575H241.982C242.397 340.575 242.737 340.916 242.737 341.332C242.737 341.748 242.397 342.09 241.982 342.09Z" fill="#EFCBAB"/>
<path d="M258.442 342.09H244.914C244.498 342.09 244.158 341.748 244.158 341.332C244.158 340.916 244.498 340.575 244.914 340.575H258.442C258.86 340.575 259.2 340.916 259.2 341.332C259.2 341.748 258.86 342.09 258.442 342.09Z" fill="#EFCBAB"/>
</svg>
