<svg width="120" height="120" viewBox="0 0 120 120" fill="none" xmlns="http://www.w3.org/2000/svg">
<circle cx="60" cy="60" r="60" fill="none"/>
<path id="github-icon" d="M59.5 0C26.6263 0 0 26.6289 0 59.4726C0 85.7545 17.0467 108.042 40.6831 115.897C43.6581 116.457 44.749 114.619 44.749 113.038C44.749 111.625 44.6994 107.883 44.6746 102.927C28.1237 106.515 24.633 94.948 24.633 94.948C21.9258 88.0839 18.0136 86.2502 18.0136 86.2502C12.6239 82.5629 18.4301 82.6372 18.4301 82.6372C24.4049 83.0535 27.5435 88.7629 27.5435 88.7629C32.849 97.8572 41.4715 95.2305 44.8729 93.709C45.4084 89.8631 46.9405 87.2414 48.6413 85.7545C35.4273 84.2677 21.539 79.1531 21.539 56.3652C21.539 49.8727 23.8446 44.5698 27.6625 40.4067C26.9932 38.905 24.985 32.8586 28.1832 24.6663C28.1832 24.6663 33.1663 23.0704 44.5457 30.7622C49.3057 29.4389 54.3632 28.7847 59.4207 28.755C64.4782 28.7847 69.5357 29.4389 74.2957 30.7622C85.6007 23.0704 90.5838 24.6663 90.5838 24.6663C93.7819 32.8586 91.7738 38.905 91.1788 40.4067C94.9719 44.5698 97.2775 49.8727 97.2775 56.3652C97.2775 79.2126 83.3694 84.243 70.1307 85.705C72.2132 87.4892 74.1469 91.1368 74.1469 96.7074C74.1469 104.667 74.0725 111.06 74.0725 112.993C74.0725 114.554 75.1138 116.413 78.1632 115.818C101.968 108.017 119 85.7149 119 59.4726C119 26.6289 92.3589 0 59.5 0Z" fill="#606060"/>
</svg>
