<svg width="20" height="20" viewBox="0 0 20 20" fill="white" xmlns="http://www.w3.org/2000/svg">
<path d="M10 19.0703C10.6576 19.0703 11.2728 18.8522 11.8457 18.416C12.4186 17.9798 12.9199 17.3678 13.3496 16.5801C13.7858 15.7858 14.1276 14.8613 14.375 13.8066C14.6224 12.7454 14.7461 11.5931 14.7461 10.3496C14.7461 9.10612 14.6224 7.95378 14.375 6.89258C14.1341 5.82487 13.7956 4.89714 13.3594 4.10938C12.9232 3.3151 12.4186 2.69987 11.8457 2.26367C11.2728 1.82096 10.6576 1.59961 10 1.59961C9.34245 1.59961 8.72721 1.82096 8.1543 2.26367C7.58138 2.69987 7.07682 3.3151 6.64062 4.10938C6.20443 4.89714 5.86263 5.82487 5.61523 6.89258C5.37435 7.95378 5.25391 9.10612 5.25391 10.3496C5.25391 11.5931 5.37435 12.7454 5.61523 13.8066C5.86263 14.8613 6.20443 15.7858 6.64062 16.5801C7.07682 17.3678 7.58138 17.9798 8.1543 18.416C8.73372 18.8522 9.34896 19.0703 10 19.0703ZM10 2.83984C10.4427 2.83984 10.8659 3.04167 11.2695 3.44531C11.6797 3.84896 12.0443 4.40234 12.3633 5.10547C12.6823 5.80208 12.9329 6.60286 13.1152 7.50781C13.304 8.40625 13.3984 9.35352 13.3984 10.3496C13.3984 11.3327 13.304 12.2734 13.1152 13.1719C12.9329 14.0703 12.6823 14.8711 12.3633 15.5742C12.0443 16.2708 11.6797 16.821 11.2695 17.2246C10.8659 17.6283 10.4427 17.8301 10 17.8301C9.55729 17.8301 9.13086 17.6283 8.7207 17.2246C8.31706 16.821 7.95573 16.2708 7.63672 15.5742C7.31771 14.8711 7.0638 14.0703 6.875 13.1719C6.69271 12.2734 6.60156 11.3327 6.60156 10.3496C6.60156 9.35352 6.69271 8.40625 6.875 7.50781C7.0638 6.60286 7.31771 5.80208 7.63672 5.10547C7.95573 4.40234 8.31706 3.84896 8.7207 3.44531C9.13086 3.04167 9.55729 2.83984 10 2.83984ZM9.33594 1.72656V18.8945H10.6641V1.72656H9.33594ZM10 13.4648C9.03646 13.4648 8.11849 13.5462 7.24609 13.709C6.3737 13.8652 5.59245 14.0866 4.90234 14.373C4.21875 14.6595 3.66536 15.0013 3.24219 15.3984L4.24805 16.2383C4.84049 15.7826 5.63477 15.4277 6.63086 15.1738C7.62695 14.9199 8.75 14.793 10 14.793C11.25 14.793 12.373 14.9199 13.3691 15.1738C14.3652 15.4277 15.1595 15.7826 15.752 16.2383L16.7578 15.3984C16.3346 15.0013 15.778 14.6595 15.0879 14.373C14.4043 14.0866 13.6263 13.8652 12.7539 13.709C11.888 13.5462 10.9701 13.4648 10 13.4648ZM18.4375 9.66602H1.5625V10.9941H18.4375V9.66602ZM10 7.23438C10.9701 7.23438 11.888 7.15625 12.7539 7C13.6263 6.84375 14.4043 6.6224 15.0879 6.33594C15.778 6.04297 16.3346 5.69792 16.7578 5.30078L15.752 4.4707C15.1595 4.92643 14.3652 5.28125 13.3691 5.53516C12.373 5.78255 11.25 5.90625 10 5.90625C8.75 5.90625 7.62695 5.78255 6.63086 5.53516C5.64128 5.28125 4.84701 4.92643 4.24805 4.4707L3.24219 5.30078C3.66536 5.69792 4.21875 6.04297 4.90234 6.33594C5.59245 6.6224 6.3737 6.84375 7.24609 7C8.11849 7.15625 9.03646 7.23438 10 7.23438ZM10 19.9297C11.3151 19.9297 12.5488 19.679 13.7012 19.1777C14.86 18.6764 15.8822 17.9831 16.7676 17.0977C17.653 16.2188 18.3464 15.1999 18.8477 14.041C19.349 12.8822 19.5996 11.6452 19.5996 10.3301C19.5996 9.01497 19.3457 7.78125 18.8379 6.62891C18.3366 5.47005 17.6432 4.44792 16.7578 3.5625C15.8789 2.67708 14.86 1.98698 13.7012 1.49219C12.5423 0.990885 11.3053 0.740234 9.99023 0.740234C8.68164 0.740234 7.44792 0.990885 6.28906 1.49219C5.13021 1.98698 4.10807 2.67708 3.22266 3.5625C2.34375 4.44792 1.65365 5.47005 1.15234 6.62891C0.651042 7.78125 0.400391 9.01497 0.400391 10.3301C0.400391 11.6452 0.651042 12.8822 1.15234 14.041C1.65365 15.1999 2.34375 16.2188 3.22266 17.0977C4.10807 17.9831 5.13021 18.6764 6.28906 19.1777C7.44792 19.679 8.6849 19.9297 10 19.9297ZM10 18.3477C8.90625 18.3477 7.87435 18.1393 6.9043 17.7227C5.93424 17.306 5.08138 16.7298 4.3457 15.9941C3.61003 15.252 3.0306 14.3958 2.60742 13.4258C2.19076 12.4557 1.98242 11.4238 1.98242 10.3301C1.98242 9.23633 2.19076 8.20768 2.60742 7.24414C3.0306 6.27409 3.61003 5.42122 4.3457 4.68555C5.08138 3.94336 5.93099 3.36393 6.89453 2.94727C7.86458 2.5306 8.89648 2.32227 9.99023 2.32227C11.0905 2.32227 12.1224 2.5306 13.0859 2.94727C14.056 3.36393 14.9089 3.94336 15.6445 4.68555C16.3867 5.42122 16.9661 6.27409 17.3828 7.24414C17.806 8.20768 18.0176 9.23633 18.0176 10.3301C18.0176 11.4238 17.806 12.4557 17.3828 13.4258C16.9661 14.3958 16.3867 15.252 15.6445 15.9941C14.9089 16.7298 14.056 17.306 13.0859 17.7227C12.1224 18.1393 11.0938 18.3477 10 18.3477Z" fill="white"/>
</svg>
