<svg width="122" height="122" viewBox="0 0 122 122" fill="none" xmlns="http://www.w3.org/2000/svg">
<rect width="122" height="122" rx="9" fill="none"/>
<path id="linkedin-icon" d="M103.939 103.964H85.8727V75.6553C85.8727 68.9046 85.7355 60.2172 76.4584 60.2172C67.039 60.2172 65.6004 67.5626 65.6004 75.1571V103.964H47.5343V45.75H64.8888V53.6851H65.1226C67.5473 49.1101 73.444 44.2809 82.2534 44.2809C100.559 44.2809 103.944 56.3284 103.944 72.0105V103.964H103.939ZM27.1298 37.7844C21.3144 37.7844 16.6428 33.0773 16.6428 27.2873C16.6428 21.5025 21.3195 16.8004 27.1298 16.8004C32.9248 16.8004 37.6217 21.5025 37.6217 27.2873C37.6217 33.0773 32.9197 37.7844 27.1298 37.7844ZM36.1883 103.964H18.0713V45.75H36.1883V103.964ZM112.977 0H9.00258C4.026 0 0 3.9345 0 8.78908V113.211C0 118.071 4.026 122 9.00258 122H112.962C117.933 122 122 118.071 122 113.211V8.78908C122 3.9345 117.933 0 112.962 0H112.977Z" fill="#606060"/>
</svg>
