<svg width="155" height="148" viewBox="0 0 155 148" fill="none" xmlns="http://www.w3.org/2000/svg">
<rect x="15" y="28" width="125" height="98" rx="15" fill="none"/>
<path id="mail-icon" d="M77.5 83.6094C79.8411 83.6094 82.1823 82.4388 84.5234 80.0977L134.293 30.9941C132.194 28.8548 128.319 27.7852 122.668 27.7852H30.6367C25.7526 27.7852 22.3822 28.7539 20.5254 30.6914L70.5371 80.0977C72.8783 82.4388 75.1992 83.6094 77.5 83.6094ZM16.1055 116.85L56.6719 76.9492L15.9238 36.8672C15.0358 38.4818 14.5918 41.2467 14.5918 45.1621V108.312C14.5918 112.389 15.0964 115.235 16.1055 116.85ZM32.1504 125.75H124.121C128.965 125.75 132.335 124.801 134.232 122.904L93 82.2773L89.0645 86.1523C85.3105 89.7448 81.4557 91.541 77.5 91.541C73.5443 91.541 69.7096 89.7448 65.9961 86.1523L62.0605 82.2773L20.8887 122.904C22.9876 124.801 26.7415 125.75 32.1504 125.75ZM138.834 116.729C139.722 115.114 140.166 112.309 140.166 108.312V45.1621C140.166 41.3678 139.742 38.6836 138.895 37.1094L98.4492 76.9492L138.834 116.729Z" fill="#606060"/>
</svg>
